HIERARCHY
ROOT Hips
{
	OFFSET 0.000000 89.005402 0.000000
	CHANNELS 6 Xposition Yposition Zposition Xrotation Yrotation Zrotation
	JOINT Spine
	{
		OFFSET 0.116900 10.681000 0.373400
		CHANNELS 3 Xrotation Yrotation Zrotation
		JOINT Spine1
		{
			OFFSET 0.000000 13.840401 0.053500
			CHANNELS 3 Xrotation Yrotation Zrotation
			JOINT Spine2
			{
				OFFSET 0.000000 14.712700 -0.366200
				CHANNELS 3 Xrotation Yrotation Zrotation
				JOINT Neck
				{
					OFFSET 0.000000 35.415497 -3.314200
					CHANNELS 3 Xrotation Yrotation Zrotation
					JOINT Head
					{
						OFFSET 0.000000 16.899200 1.218300
						CHANNELS 3 Xrotation Yrotation Zrotation
						JOINT HeadTop_End
						{
							OFFSET 0.000000 22.206207 2.192500
							CHANNELS 3 Xrotation Yrotation Zrotation
							End Site
							{
								OFFSET 0.000000 22.314178 0.000000
							}
						}
					}
				}
				JOINT LeftShoulder
				{
					OFFSET 12.896400 26.716293 -4.548400
					CHANNELS 3 Xrotation Yrotation Zrotation
					JOINT LeftArm
					{
						OFFSET 19.027000 -4.857010 -1.718400
						CHANNELS 3 Xrotation Yrotation Zrotation
						JOINT LeftForeArm
						{
							OFFSET 24.179897 0.000000 0.000000
							CHANNELS 3 Xrotation Yrotation Zrotation
							JOINT LeftHand
							{
								OFFSET 27.156403 0.000000 0.000000
								CHANNELS 3 Xrotation Yrotation Zrotation
								JOINT LeftHandIndex1
								{
									OFFSET 16.441200 0.000000 0.000000
									CHANNELS 3 Xrotation Yrotation Zrotation
									JOINT LeftHandIndex2
									{
										OFFSET 4.821899 0.000000 0.000000
										CHANNELS 3 Xrotation Yrotation Zrotation
										JOINT LeftHandIndex3
										{
											OFFSET 6.386497 0.000000 0.000000
											CHANNELS 3 Xrotation Yrotation Zrotation
											JOINT LeftHandIndex4
											{
												OFFSET 5.188988 0.000000 0.000000
												CHANNELS 3 Xrotation Yrotation Zrotation
												End Site
												{
													OFFSET -0.178703 5.185913 0.000177
												}
											}
										}
									}
								}
								JOINT LeftHandThumb1
								{
									OFFSET 6.534897 -5.032593 5.900300
									CHANNELS 3 Xrotation Yrotation Zrotation
									JOINT LeftHandThumb2
									{
										OFFSET 3.818176 -2.204422 2.204423
										CHANNELS 3 Xrotation Yrotation Zrotation
										JOINT LeftHandThumb3
										{
											OFFSET 3.252098 -1.877594 1.877601
											CHANNELS 3 Xrotation Yrotation Zrotation
											JOINT LeftHandThumb4
											{
												OFFSET 5.251778 -3.032120 3.032117
												CHANNELS 3 Xrotation Yrotation Zrotation
												End Site
												{
													OFFSET 0.000023 6.780014 0.000000
												}
											}
										}
									}
								}
							}
						}
					}
				}
				JOINT RightShoulder
				{
					OFFSET -12.896300 26.716293 -4.548400
					CHANNELS 3 Xrotation Yrotation Zrotation
					JOINT RightArm
					{
						OFFSET -19.027000 -4.857010 -1.718400
						CHANNELS 3 Xrotation Yrotation Zrotation
						JOINT RightForeArm
						{
							OFFSET -24.179897 0.000000 0.000000
							CHANNELS 3 Xrotation Yrotation Zrotation
							JOINT RightHand
							{
								OFFSET -27.156403 0.000000 0.000000
								CHANNELS 3 Xrotation Yrotation Zrotation
								JOINT RightHandThumb1
								{
									OFFSET -6.591202 -4.852203 5.988100
									CHANNELS 3 Xrotation Yrotation Zrotation
									JOINT RightHandThumb2
									{
										OFFSET -3.818176 -2.204422 2.204423
										CHANNELS 3 Xrotation Yrotation Zrotation
										JOINT RightHandThumb3
										{
											OFFSET -3.252098 -1.877594 1.877601
											CHANNELS 3 Xrotation Yrotation Zrotation
											JOINT RightHandThumb4
											{
												OFFSET -5.251778 -3.032120 3.032117
												CHANNELS 3 Xrotation Yrotation Zrotation
												End Site
												{
													OFFSET -0.000023 6.780014 0.000000
												}
											}
										}
									}
								}
								JOINT RightHandIndex1
								{
									OFFSET -16.029404 0.000000 0.000000
									CHANNELS 3 Xrotation Yrotation Zrotation
									JOINT RightHandIndex2
									{
										OFFSET -5.213303 0.000000 0.000000
										CHANNELS 3 Xrotation Yrotation Zrotation
										JOINT RightHandIndex3
										{
											OFFSET -6.386528 0.000000 0.000000
											CHANNELS 3 Xrotation Yrotation Zrotation
											JOINT RightHandIndex4
											{
												OFFSET -5.189026 0.000000 0.000000
												CHANNELS 3 Xrotation Yrotation Zrotation
												End Site
												{
													OFFSET 0.236702 5.183624 0.001972
												}
											}
										}
									}
								}
							}
						}
					}
				}
			}
		}
	}
	JOINT LeftUpLeg
	{
		OFFSET 14.073000 -7.904099 -1.463000
		CHANNELS 3 Xrotation Yrotation Zrotation
		JOINT LeftLeg
		{
			OFFSET -0.109806 -34.073280 4.093200
			CHANNELS 3 Xrotation Yrotation Zrotation
			JOINT LeftFoot
			{
				OFFSET 0.109806 -29.899420 -6.319000
				CHANNELS 3 Xrotation Yrotation Zrotation
				JOINT LeftToeBase
				{
					OFFSET 1.551100 -14.988700 20.535801
					CHANNELS 3 Xrotation Yrotation Zrotation
					JOINT LeftToe_End
					{
						OFFSET 0.221200 0.570800 13.248301
						CHANNELS 3 Xrotation Yrotation Zrotation
						End Site
						{
							OFFSET 0.000000 13.262435 0.000000
						}
					}
				}
			}
		}
	}
	JOINT RightUpLeg
	{
		OFFSET -13.839300 -7.904099 -1.463000
		CHANNELS 3 Xrotation Yrotation Zrotation
		JOINT RightLeg
		{
			OFFSET 0.109694 -34.073219 4.093300
			CHANNELS 3 Xrotation Yrotation Zrotation
			JOINT RightFoot
			{
				OFFSET -0.109694 -29.899384 -6.319200
				CHANNELS 3 Xrotation Yrotation Zrotation
				JOINT RightToeBase
				{
					OFFSET -1.551100 -14.988700 20.535801
					CHANNELS 3 Xrotation Yrotation Zrotation
					JOINT RightToe_End
					{
						OFFSET -0.221200 0.570900 13.248299
						CHANNELS 3 Xrotation Yrotation Zrotation
						End Site
						{
							OFFSET 0.000000 13.262440 0.000000
						}
					}
				}
			}
		}
	}
}
MOTION
Frames: 9
Frame Time: 0.033333
-64.797867 70.716194 219.920319 18.174525 -4.015529 -3.001438 11.972454 -0.889253 0.399464 9.963859 -0.488111 0.197140 9.854823 -0.228334 0.874218 -9.392622 0.771778 1.961425 -17.199125 4.927557 0.335899 0.000001 -0.000000 0.000000 -9.335935 -25.689842 -3.149811 -41.512804 -2.342805 -64.515412 -0.000006 -98.097103 0.000002 -41.030814 -35.321784 -9.569017 3.842238 -9.345656 -22.144571 0.576258 2.535652 -25.603517 0.425416 2.193629 -21.949332 0.000004 -0.000000 0.000001 -10.733028 4.453210 3.615526 4.404783 5.405467 -0.960599 -5.195157 8.358878 10.876944 0.000003 -0.000001 -0.000001 -5.805323 29.141835 -1.661609 -40.046458 -2.309250 71.810307 0.000012 99.634756 -0.000016 -47.481119 23.641520 17.287967 -7.369140 11.910725 11.867575 7.114687 -18.648228 -0.798322 -4.948107 -9.793023 -15.628438 0.000002 0.000003 0.000001 0.003083 5.788432 17.864507 0.297424 -1.639227 20.566733 0.136313 -1.119653 13.881652 0.000001 0.000003 -0.000002 -68.488397 12.383941 18.058052 71.500982 0.488956 1.383324 -27.129511 -2.982245 -1.722217 3.384843 -0.000011 -0.000001 0.000000 0.000001 0.000000 -65.070434 5.808891 -5.530104 75.375987 -8.742418 -4.263530 -8.981406 -5.832205 17.194532 -10.710456 -0.276643 4.781065 0.000000 0.000001 -0.000000 
-64.386978 72.347054 226.995850 16.921167 -4.628312 -1.952363 10.986703 -1.382606 0.993796 9.137092 -0.907445 0.740756 9.030818 -0.651345 1.408790 -9.344674 1.171496 1.887968 -15.357421 7.297650 -1.443870 -0.000002 0.000000 0.000000 -8.993617 -22.627431 -4.493494 -36.018173 -5.514184 -62.765163 -0.000161 -96.216827 -0.000183 -45.737628 -33.719684 -12.490894 4.088916 -9.317413 -21.415211 0.570754 2.524163 -25.479025 0.418991 2.177573 -21.780493 0.000001 -0.000000 -0.000002 -8.826782 4.275879 2.289038 4.380230 5.330400 -1.009401 -5.181112 8.294223 10.747893 -0.000002 0.000000 -0.000000 -5.524937 27.785042 -0.953760 -33.107815 1.500843 68.500650 0.000121 97.785715 -0.000125 -50.448508 26.440630 12.052941 -7.523436 11.952519 12.031072 7.121628 -18.640845 -0.754977 -4.961473 -9.682581 -15.605626 0.000000 0.000001 0.000001 -0.019158 5.840404 17.969287 0.298573 -1.642298 20.607060 0.133109 -1.106665 13.717292 -0.000002 -0.000001 0.000002 -62.887546 12.583519 14.931939 73.776070 -5.065774 4.417927 -22.923464 0.617372 1.812367 -12.692979 0.000004 0.000001 0.000000 0.000000 0.000000 -64.527447 3.894358 -5.300223 54.852580 -8.676342 -4.699390 -0.913354 -3.631956 15.863980 -5.970270 0.000000 0.000004 -0.000000 0.000002 0.000000 
-64.486717 73.267525 234.222351 16.048233 -5.833430 -0.352986 10.143114 -2.497625 0.947567 8.375925 -1.549518 0.990700 8.275915 -1.279653 1.661274 -9.456245 1.708924 1.569886 -14.081832 9.693531 -2.676879 -0.000001 -0.000000 -0.000000 -8.602890 -18.797994 -5.783503 -28.993859 -9.006952 -60.466258 -0.000712 -94.245327 -0.000717 -46.635985 -31.878965 -9.970920 4.164732 -9.579347 -21.505826 0.565308 2.512698 -25.354871 0.408929 2.152267 -21.514382 -0.000001 0.000004 -0.000002 -5.247253 3.080105 -1.026568 4.355703 5.255362 -1.058268 -5.167047 8.229458 10.618881 -0.000000 0.000003 0.000000 -5.305799 27.002444 -0.207868 -25.087903 4.798794 64.323757 0.000783 95.680090 -0.000780 -51.203090 28.477036 8.114741 -7.677543 11.993868 12.194951 7.128584 -18.633473 -0.711601 -4.974969 -9.572632 -15.582689 0.000001 -0.000000 0.000000 -0.041587 5.892301 18.074084 0.299746 -1.645398 20.647783 0.129982 -1.093679 13.553307 -0.000001 0.000002 0.000000 -56.090972 12.788183 14.849538 76.950400 -1.562704 2.922371 -24.360379 1.969819 -0.878129 -14.722620 0.000001 0.000001 0.000000 0.000000 0.000000 -69.352744 2.524599 -5.298592 49.018219 -9.310668 -3.569154 -5.628535 -1.215478 16.363625 -5.081196 -0.000003 0.000005 0.000000 0.000001 0.000001 
-64.698723 73.405777 241.543503 14.268246 -5.297720 1.390051 9.586702 -3.638524 0.720171 7.804168 -2.243769 0.912065 7.714982 -1.954953 1.591331 -9.580052 2.065751 1.274827 -13.396935 11.144763 -3.729788 -0.000001 0.000000 -0.000000 -8.108567 -14.971493 -6.657902 -21.470032 -12.346848 -58.882269 0.001271 -92.261519 0.001196 -42.753091 -30.132257 -5.445313 4.228178 -9.827848 -21.635188 0.559873 2.501223 -25.230826 0.398957 2.126771 -21.246849 0.000002 -0.000000 -0.000000 -0.933309 0.911474 -4.858491 4.331142 5.180361 -1.107171 -5.152954 8.164609 10.489902 -0.000001 -0.000001 0.000003 -5.064647 25.764237 0.640859 -16.081435 6.594301 60.824843 0.000565 94.551880 -0.000602 -46.602804 29.601394 5.662629 -7.831479 12.034720 12.359240 7.135316 -18.626144 -0.668266 -4.988594 -9.462917 -15.559671 0.000001 0.000001 0.000000 -0.064254 5.944139 18.178914 0.300927 -1.648520 20.688699 0.126850 -1.080725 13.389508 0.000002 -0.000004 0.000001 -49.652292 11.517664 15.132796 81.164825 0.892165 0.721550 -22.206308 1.594849 -3.599318 -20.644933 0.632955 -4.372745 -0.000000 0.000000 -0.000000 -72.738933 1.708794 -6.528402 46.474783 -7.347924 -1.934400 -12.058457 -1.458751 18.076664 -4.931111 0.000006 -0.000003 0.000002 0.000000 0.000000 
-64.644943 72.742416 248.476868 11.779816 -3.906694 2.294502 9.195098 -3.961213 1.045662 7.381575 -2.727923 0.666034 7.307017 -2.427894 1.342145 -9.478598 2.089812 1.130702 -12.684296 11.265654 -4.847860 0.000001 -0.000000 0.000000 -7.547835 -11.834973 -6.597423 -14.081769 -14.948895 -58.779945 0.009837 -90.984793 0.009893 -33.972948 -27.454039 -2.101694 4.333662 -10.002800 -21.567181 0.554472 2.489743 -25.106742 0.389724 2.102906 -20.996862 -0.000001 -0.000001 -0.000001 2.490638 -1.332812 -7.697072 4.306558 5.105410 -1.156147 -5.138852 8.099664 10.360973 0.000002 0.000000 -0.000003 -4.387619 23.658708 0.519241 -6.362738 7.057509 60.163851 0.000184 95.270737 -0.000204 -35.346693 30.438147 1.249025 -7.985230 12.075106 12.523925 7.141815 -18.618826 -0.624989 -5.002221 -9.353084 -15.536657 0.000001 -0.000001 0.000001 -0.087101 5.995918 18.283739 0.302106 -1.651620 20.729523 0.123798 -1.067720 13.225642 -0.000000 0.000001 -0.000000 -48.330422 4.790362 18.721504 88.322631 5.387600 -3.250000 -9.757194 -4.545043 -4.806563 -32.714827 4.480826 -9.513904 0.000000 0.000001 0.000000 -72.403120 2.197748 -6.740318 45.028931 -6.068831 -1.909453 -9.654697 -0.961041 16.829467 -6.274117 0.000002 0.000007 0.000005 -0.000000 0.000001 
-64.538101 71.706970 255.190475 10.032320 -2.931735 2.511131 8.772158 -3.620632 1.835140 7.043753 -2.904402 0.553728 6.982890 -2.604809 1.202059 -8.924500 1.984893 0.798275 -12.005978 10.450080 -5.651821 -0.000000 0.000000 0.000000 -7.044807 -9.548386 -5.748814 -6.494074 -16.377752 -59.430173 0.000018 -91.316323 0.000165 -23.106231 -24.651068 -0.428788 4.451429 -10.168442 -21.449055 0.549112 2.478218 -24.982580 0.380682 2.079209 -20.749018 0.000000 -0.000000 -0.000000 4.041786 -2.668831 -8.933578 4.282004 5.030460 -1.205145 -5.124721 8.034632 10.232079 0.000000 0.000000 0.000005 -3.274210 21.644255 -1.217138 2.836625 8.260480 62.853860 -0.000105 97.361061 0.000119 -20.042577 29.997334 -7.538856 -8.138797 12.115022 12.688988 7.148092 -18.611524 -0.581756 -5.015867 -9.243183 -15.513665 -0.000000 -0.000002 -0.000001 -0.110145 6.047668 18.388572 0.303271 -1.654734 20.770271 0.120722 -1.054737 13.061678 -0.000000 -0.000002 0.000000 -48.467197 -1.534138 21.628902 91.872062 7.278747 -5.956751 -3.301360 -8.530787 -2.634633 -33.533326 8.594695 -15.074801 -0.000001 0.000001 -0.000000 -70.182741 3.766863 -4.773489 45.355086 -5.575510 -3.492212 2.016368 0.546006 12.612439 -9.248775 0.000000 0.000002 -0.000001 0.000000 0.000001 
-64.688599 70.708191 261.645782 7.983814 -1.557784 2.172687 8.381142 -3.061365 2.734984 6.830108 -2.767462 0.783538 6.774394 -2.478628 1.388378 -8.130857 1.953995 0.085383 -12.228815 9.337354 -5.880293 0.000001 -0.000000 0.000000 -6.667986 -7.958109 -5.057468 0.986260 -16.552180 -59.431709 -0.000376 -93.444528 -0.000375 -14.741959 -22.852319 1.806184 4.558292 -10.356211 -21.383183 0.543719 2.466726 -24.858433 0.371558 2.054947 -20.495743 0.000000 -0.000001 -0.000002 3.835044 -3.138508 -8.863248 4.257461 4.955543 -1.254226 -5.110622 7.969510 10.103226 -0.000002 0.000000 0.000002 -2.232138 20.678758 -3.289217 8.900652 11.585696 66.121245 0.000186 99.161704 -0.000213 -5.719294 27.507436 -18.866292 -8.292189 12.154469 12.854439 7.154181 -18.604255 -0.538570 -5.029579 -9.133294 -15.490606 0.000000 0.000001 -0.000000 -0.133404 6.099341 18.493418 0.304451 -1.657826 20.811026 0.117745 -1.041716 12.897738 -0.000001 -0.000000 0.000000 -48.683307 -5.605624 23.239104 92.909212 6.154686 -6.331544 -5.544266 -11.124655 -1.334547 -28.279693 7.827270 -16.673294 -0.000001 -0.000000 -0.000000 -67.502254 6.004747 -3.434827 49.026528 -7.076061 -4.919536 4.821062 0.937574 12.472145 -3.786696 -0.000002 0.000002 0.000001 -0.000000 -0.000000 
-65.045418 69.607803 267.461273 6.356271 -1.534985 1.544391 8.201976 -2.365984 3.517522 6.771807 -2.337053 1.264203 6.711177 -2.062035 1.830726 -7.916054 1.951984 -0.592087 -13.373927 8.376020 -5.860999 0.000000 -0.000000 0.000000 -6.390247 -6.920156 -5.217477 5.966178 -16.341907 -58.685054 0.000431 -95.712138 0.000415 -10.880813 -22.757412 7.086209 4.658799 -10.552072 -21.345212 0.538401 2.455193 -24.734313 0.362435 2.030468 -20.240530 -0.000002 -0.000000 -0.000000 2.534301 -3.485508 -8.066789 4.232895 4.880644 -1.303355 -5.096459 7.904303 9.974451 0.000000 0.000000 0.000004 -1.662141 20.501352 -3.817596 9.846754 15.602976 67.289705 0.000010 99.133215 -0.000020 4.525462 25.051993 -30.017131 -8.445399 12.193407 13.020308 7.160241 -18.596964 -0.495350 -5.043311 -9.023453 -15.467563 -0.000000 -0.000001 0.000000 -0.156867 6.150981 18.598298 0.305646 -1.660900 20.851808 0.114783 -1.028704 12.733821 0.000000 -0.000001 -0.000004 -50.288859 -9.540783 24.561471 93.011610 3.402375 -5.996669 -7.342436 -11.166145 -1.664622 -22.947291 6.280737 -16.993707 -0.000001 0.000002 -0.000000 -65.921523 7.762083 -1.022731 55.941981 -8.947048 -6.200816 -0.411833 0.207471 13.062167 7.797997 0.000001 0.000001 -0.000000 -0.000000 0.000000 
-65.242767 69.216309 273.040833 5.351735 -1.384461 0.837663 8.086634 -1.585596 4.098562 6.690667 -1.741404 1.688318 6.622612 -1.474814 2.229766 -8.608371 1.845417 -0.805459 -13.955660 7.488371 -5.957502 0.000000 -0.000000 0.000000 -6.150178 -6.326905 -5.909983 6.587219 -17.676647 -58.296778 -0.000707 -95.319456 -0.000721 -9.170507 -26.241850 16.256885 4.761835 -10.742370 -21.295876 0.533106 2.443655 -24.610191 0.353516 2.006062 -19.986694 0.000001 -0.000001 0.000001 0.677253 -4.146239 -6.938484 4.208346 4.805771 -1.352525 -5.082307 7.839000 9.845679 -0.000000 -0.000000 -0.000001 -1.488575 20.243111 -2.817703 6.661543 18.727870 66.848783 0.000018 97.055444 -0.000040 10.747451 24.519732 -39.337604 -8.598418 12.231874 13.186542 7.166287 -18.589685 -0.452159 -5.057067 -8.913607 -15.444492 -0.000000 0.000000 -0.000000 -0.180541 6.202526 18.703177 0.306816 -1.664020 20.892582 0.111865 -1.015675 12.569905 -0.000001 0.000001 -0.000003 -52.672769 -12.637790 24.549004 90.474871 0.621311 -5.203091 -7.791679 -10.090432 -1.957989 -17.076038 4.418134 -16.901127 -0.000000 0.000001 -0.000000 -63.040283 7.057642 -0.611072 64.324010 -9.286481 -6.156899 -10.516718 -1.128680 14.267001 7.798027 -0.000003 0.000000 -0.000000 0.000000 0.000000 
